<mxfile host="Electron" agent="Mozilla/5.0 (Windows NT 10.0; Win64; x64) AppleWebKit/537.36 (KHTML, like Gecko) draw.io/25.0.1 Chrome/128.0.6613.186 Electron/32.2.6 Safari/537.36" version="25.0.1" pages="5">
  <diagram id="QZ0Z9FMAgrSxg7aDLXDa" name="Homepage">
    <mxGraphModel dx="1034" dy="557" grid="1" gridSize="10" guides="1" tooltips="1" connect="1" arrows="1" fold="1" page="1" pageScale="1" pageWidth="827" pageHeight="1169" math="0" shadow="0">
      <root>
        <mxCell id="0" />
        <mxCell id="1" parent="0" />
        <mxCell id="Ynr3zo399kVW6QQLke4Y-1" value="" style="rounded=0;whiteSpace=wrap;html=1;" vertex="1" parent="1">
          <mxGeometry x="40" y="40" width="750" height="510" as="geometry" />
        </mxCell>
        <mxCell id="Ynr3zo399kVW6QQLke4Y-2" value="" style="rounded=0;whiteSpace=wrap;html=1;" vertex="1" parent="1">
          <mxGeometry x="40" y="40" width="750" height="60" as="geometry" />
        </mxCell>
        <mxCell id="Ynr3zo399kVW6QQLke4Y-3" value="Ruti" style="rounded=0;whiteSpace=wrap;html=1;" vertex="1" parent="1">
          <mxGeometry x="40" y="40" width="120" height="60" as="geometry" />
        </mxCell>
        <mxCell id="Ynr3zo399kVW6QQLke4Y-4" value="" style="rounded=0;whiteSpace=wrap;html=1;" vertex="1" parent="1">
          <mxGeometry x="50" y="120" width="730" height="120" as="geometry" />
        </mxCell>
        <mxCell id="Ynr3zo399kVW6QQLke4Y-5" value="Hoy {{dia}} toca" style="rounded=0;whiteSpace=wrap;html=1;" vertex="1" parent="1">
          <mxGeometry x="50" y="120" width="180" height="40" as="geometry" />
        </mxCell>
        <mxCell id="Ynr3zo399kVW6QQLke4Y-6" value="Dia x" style="rounded=0;whiteSpace=wrap;html=1;" vertex="1" parent="1">
          <mxGeometry x="240" y="130" width="520" height="100" as="geometry" />
        </mxCell>
        <mxCell id="Ynr3zo399kVW6QQLke4Y-7" value="?" style="rounded=0;whiteSpace=wrap;html=1;" vertex="1" parent="1">
          <mxGeometry x="50" y="265" width="720" height="105" as="geometry" />
        </mxCell>
        <mxCell id="Ynr3zo399kVW6QQLke4Y-8" value="" style="rounded=0;whiteSpace=wrap;html=1;" vertex="1" parent="1">
          <mxGeometry x="50" y="390" width="720" height="105" as="geometry" />
        </mxCell>
        <mxCell id="Ynr3zo399kVW6QQLke4Y-9" value="Gestiona tus rutinas" style="rounded=0;whiteSpace=wrap;html=1;" vertex="1" parent="1">
          <mxGeometry x="50" y="390" width="210" height="30" as="geometry" />
        </mxCell>
        <mxCell id="3WbM8d_8VXS7bVqp-Lhf-1" value="Rutina x" style="rounded=0;whiteSpace=wrap;html=1;" vertex="1" parent="1">
          <mxGeometry x="60" y="430" width="200" height="60" as="geometry" />
        </mxCell>
        <mxCell id="3WbM8d_8VXS7bVqp-Lhf-2" value="Rutina x" style="rounded=0;whiteSpace=wrap;html=1;" vertex="1" parent="1">
          <mxGeometry x="270" y="430" width="200" height="60" as="geometry" />
        </mxCell>
        <mxCell id="3WbM8d_8VXS7bVqp-Lhf-3" value="Rutina x" style="rounded=0;whiteSpace=wrap;html=1;" vertex="1" parent="1">
          <mxGeometry x="480" y="430" width="200" height="60" as="geometry" />
        </mxCell>
        <mxCell id="3WbM8d_8VXS7bVqp-Lhf-4" value="Rutina x" style="rounded=0;whiteSpace=wrap;html=1;" vertex="1" parent="1">
          <mxGeometry x="55" y="170" width="175" height="60" as="geometry" />
        </mxCell>
      </root>
    </mxGraphModel>
  </diagram>
  <diagram name="Vista rutina" id="gdXIR0OIJM-iABKokuzw">
    <mxGraphModel dx="1034" dy="557" grid="1" gridSize="10" guides="1" tooltips="1" connect="1" arrows="1" fold="1" page="1" pageScale="1" pageWidth="827" pageHeight="1169" math="0" shadow="0">
      <root>
        <mxCell id="0" />
        <mxCell id="1" parent="0" />
        <mxCell id="9kKzRiJ5kw-ODING8pFO-1" value="" style="rounded=0;whiteSpace=wrap;html=1;" vertex="1" parent="1">
          <mxGeometry x="50" y="50" width="720" height="510" as="geometry" />
        </mxCell>
        <mxCell id="9kKzRiJ5kw-ODING8pFO-3" value="Fecha de inicio" style="rounded=0;whiteSpace=wrap;html=1;" vertex="1" parent="1">
          <mxGeometry x="60" y="110" width="140" height="30" as="geometry" />
        </mxCell>
        <mxCell id="9kKzRiJ5kw-ODING8pFO-4" value="Fecha de fin" style="rounded=0;whiteSpace=wrap;html=1;" vertex="1" parent="1">
          <mxGeometry x="210" y="110" width="140" height="30" as="geometry" />
        </mxCell>
        <mxCell id="9kKzRiJ5kw-ODING8pFO-6" value="Activo" style="rounded=0;whiteSpace=wrap;html=1;" vertex="1" parent="1">
          <mxGeometry x="360" y="110" width="140" height="30" as="geometry" />
        </mxCell>
        <mxCell id="9kKzRiJ5kw-ODING8pFO-7" value="Rutinas" style="rounded=0;whiteSpace=wrap;html=1;" vertex="1" parent="1">
          <mxGeometry x="60" y="60" width="140" height="30" as="geometry" />
        </mxCell>
        <mxCell id="9kKzRiJ5kw-ODING8pFO-8" value="" style="rounded=0;whiteSpace=wrap;html=1;" vertex="1" parent="1">
          <mxGeometry x="60" y="230" width="700" height="270" as="geometry" />
        </mxCell>
        <mxCell id="9kKzRiJ5kw-ODING8pFO-10" value="Lunes" style="rounded=0;whiteSpace=wrap;html=1;" vertex="1" parent="1">
          <mxGeometry x="60" y="260" width="105" height="30" as="geometry" />
        </mxCell>
        <mxCell id="9kKzRiJ5kw-ODING8pFO-11" value="Martes" style="rounded=0;whiteSpace=wrap;html=1;" vertex="1" parent="1">
          <mxGeometry x="165" y="260" width="100" height="30" as="geometry" />
        </mxCell>
        <mxCell id="9kKzRiJ5kw-ODING8pFO-12" value="Miercoles" style="rounded=0;whiteSpace=wrap;html=1;" vertex="1" parent="1">
          <mxGeometry x="265" y="260" width="95" height="30" as="geometry" />
        </mxCell>
        <mxCell id="9kKzRiJ5kw-ODING8pFO-13" value="Jueves" style="rounded=0;whiteSpace=wrap;html=1;" vertex="1" parent="1">
          <mxGeometry x="360" y="260" width="95" height="30" as="geometry" />
        </mxCell>
        <mxCell id="9kKzRiJ5kw-ODING8pFO-14" value="Viernes" style="rounded=0;whiteSpace=wrap;html=1;" vertex="1" parent="1">
          <mxGeometry x="455" y="260" width="95" height="30" as="geometry" />
        </mxCell>
        <mxCell id="9kKzRiJ5kw-ODING8pFO-15" value="Sabado" style="rounded=0;whiteSpace=wrap;html=1;" vertex="1" parent="1">
          <mxGeometry x="550" y="260" width="95" height="30" as="geometry" />
        </mxCell>
        <mxCell id="9kKzRiJ5kw-ODING8pFO-16" value="Domingo" style="rounded=0;whiteSpace=wrap;html=1;" vertex="1" parent="1">
          <mxGeometry x="645" y="260" width="115" height="30" as="geometry" />
        </mxCell>
        <mxCell id="9kKzRiJ5kw-ODING8pFO-17" value="Dia de xxxx&lt;div&gt;- Ejercicio 1&lt;/div&gt;&lt;div&gt;- Ejercicio 1&lt;br&gt;&lt;/div&gt;&lt;div&gt;- Ejercicio 1&lt;br&gt;&lt;/div&gt;&lt;div&gt;- Ejercicio 1&lt;br&gt;&lt;/div&gt;" style="rounded=0;whiteSpace=wrap;html=1;" vertex="1" parent="1">
          <mxGeometry x="60" y="290" width="105" height="210" as="geometry" />
        </mxCell>
        <mxCell id="9kKzRiJ5kw-ODING8pFO-18" value="Dia de xxxx&lt;div&gt;- Ejercicio 1&lt;/div&gt;&lt;div&gt;- Ejercicio 1&lt;br&gt;&lt;/div&gt;&lt;div&gt;- Ejercicio 1&lt;br&gt;&lt;/div&gt;&lt;div&gt;- Ejercicio 1&lt;br&gt;&lt;/div&gt;" style="rounded=0;whiteSpace=wrap;html=1;" vertex="1" parent="1">
          <mxGeometry x="265" y="290" width="95" height="210" as="geometry" />
        </mxCell>
        <mxCell id="9kKzRiJ5kw-ODING8pFO-19" value="Dia de xxxx&lt;div&gt;- Ejercicio 1&lt;/div&gt;&lt;div&gt;- Ejercicio 1&lt;br&gt;&lt;/div&gt;&lt;div&gt;- Ejercicio 1&lt;br&gt;&lt;/div&gt;&lt;div&gt;- Ejercicio 1&lt;br&gt;&lt;/div&gt;" style="rounded=0;whiteSpace=wrap;html=1;" vertex="1" parent="1">
          <mxGeometry x="455" y="290" width="95" height="210" as="geometry" />
        </mxCell>
        <mxCell id="9kKzRiJ5kw-ODING8pFO-20" value="Dia de xxxx&lt;div&gt;- Ejercicio 1&lt;/div&gt;&lt;div&gt;- Ejercicio 1&lt;br&gt;&lt;/div&gt;&lt;div&gt;- Ejercicio 1&lt;br&gt;&lt;/div&gt;&lt;div&gt;- Ejercicio 1&lt;br&gt;&lt;/div&gt;" style="rounded=0;whiteSpace=wrap;html=1;" vertex="1" parent="1">
          <mxGeometry x="550" y="290" width="95" height="210" as="geometry" />
        </mxCell>
        <mxCell id="9kKzRiJ5kw-ODING8pFO-23" value="Siguiente semana &amp;gt;" style="rounded=0;whiteSpace=wrap;html=1;" vertex="1" parent="1">
          <mxGeometry x="640" y="230" width="120" height="30" as="geometry" />
        </mxCell>
        <mxCell id="9kKzRiJ5kw-ODING8pFO-26" value="" style="html=1;verticalLabelPosition=bottom;align=center;labelBackgroundColor=#ffffff;verticalAlign=top;strokeWidth=2;strokeColor=#0080F0;shadow=0;dashed=0;shape=mxgraph.ios7.icons.page_navigation;pointerEvents=1" vertex="1" parent="1">
          <mxGeometry x="395" y="510" width="30" height="4.8" as="geometry" />
        </mxCell>
        <mxCell id="9kKzRiJ5kw-ODING8pFO-29" value="&amp;lt; Anterior semana" style="rounded=0;whiteSpace=wrap;html=1;" vertex="1" parent="1">
          <mxGeometry x="60" y="230" width="120" height="30" as="geometry" />
        </mxCell>
        <mxCell id="9kKzRiJ5kw-ODING8pFO-30" value="" style="rounded=0;whiteSpace=wrap;html=1;" vertex="1" parent="1">
          <mxGeometry x="57.5" y="150" width="700" height="70" as="geometry" />
        </mxCell>
        <mxCell id="9kKzRiJ5kw-ODING8pFO-31" value="Dia x" style="rounded=0;whiteSpace=wrap;html=1;" vertex="1" parent="1">
          <mxGeometry x="60" y="154" width="140" height="61" as="geometry" />
        </mxCell>
        <mxCell id="9kKzRiJ5kw-ODING8pFO-32" value="Dia x" style="rounded=0;whiteSpace=wrap;html=1;" vertex="1" parent="1">
          <mxGeometry x="210" y="154.5" width="140" height="61" as="geometry" />
        </mxCell>
        <mxCell id="9kKzRiJ5kw-ODING8pFO-33" value="Dia x" style="rounded=0;whiteSpace=wrap;html=1;" vertex="1" parent="1">
          <mxGeometry x="360" y="154.5" width="140" height="61" as="geometry" />
        </mxCell>
        <mxCell id="9kKzRiJ5kw-ODING8pFO-34" value="Dia x" style="rounded=0;whiteSpace=wrap;html=1;" vertex="1" parent="1">
          <mxGeometry x="510" y="154.5" width="140" height="61" as="geometry" />
        </mxCell>
        <mxCell id="9kKzRiJ5kw-ODING8pFO-36" value="" style="html=1;verticalLabelPosition=bottom;labelBackgroundColor=#ffffff;verticalAlign=top;shadow=0;dashed=0;strokeWidth=2;shape=mxgraph.ios7.misc.info;strokeColor=#0080f0;sketch=0;" vertex="1" parent="1">
          <mxGeometry x="740" y="155" width="12" height="12" as="geometry" />
        </mxCell>
      </root>
    </mxGraphModel>
  </diagram>
  <diagram name="Vista editar dia" id="k6Nwr7t799vHfFPORUnB">
    <mxGraphModel dx="1034" dy="557" grid="1" gridSize="10" guides="1" tooltips="1" connect="1" arrows="1" fold="1" page="1" pageScale="1" pageWidth="827" pageHeight="1169" math="0" shadow="0">
      <root>
        <mxCell id="IkOSHVAxNyI8cPL9JOrM-0" />
        <mxCell id="IkOSHVAxNyI8cPL9JOrM-1" parent="IkOSHVAxNyI8cPL9JOrM-0" />
        <mxCell id="IkOSHVAxNyI8cPL9JOrM-2" value="" style="rounded=0;whiteSpace=wrap;html=1;" vertex="1" parent="IkOSHVAxNyI8cPL9JOrM-1">
          <mxGeometry x="50" y="50" width="720" height="510" as="geometry" />
        </mxCell>
        <mxCell id="IkOSHVAxNyI8cPL9JOrM-3" value="Fecha de inicio" style="rounded=0;whiteSpace=wrap;html=1;" vertex="1" parent="IkOSHVAxNyI8cPL9JOrM-1">
          <mxGeometry x="60" y="110" width="140" height="30" as="geometry" />
        </mxCell>
        <mxCell id="IkOSHVAxNyI8cPL9JOrM-4" value="Fecha de fin" style="rounded=0;whiteSpace=wrap;html=1;" vertex="1" parent="IkOSHVAxNyI8cPL9JOrM-1">
          <mxGeometry x="210" y="110" width="140" height="30" as="geometry" />
        </mxCell>
        <mxCell id="IkOSHVAxNyI8cPL9JOrM-5" value="Activo" style="rounded=0;whiteSpace=wrap;html=1;" vertex="1" parent="IkOSHVAxNyI8cPL9JOrM-1">
          <mxGeometry x="360" y="110" width="140" height="30" as="geometry" />
        </mxCell>
        <mxCell id="IkOSHVAxNyI8cPL9JOrM-6" value="Rutinas" style="rounded=0;whiteSpace=wrap;html=1;" vertex="1" parent="IkOSHVAxNyI8cPL9JOrM-1">
          <mxGeometry x="60" y="60" width="140" height="30" as="geometry" />
        </mxCell>
        <mxCell id="IkOSHVAxNyI8cPL9JOrM-7" value="" style="rounded=0;whiteSpace=wrap;html=1;" vertex="1" parent="IkOSHVAxNyI8cPL9JOrM-1">
          <mxGeometry x="60" y="230" width="700" height="270" as="geometry" />
        </mxCell>
        <mxCell id="IkOSHVAxNyI8cPL9JOrM-8" value="Lunes" style="rounded=0;whiteSpace=wrap;html=1;" vertex="1" parent="IkOSHVAxNyI8cPL9JOrM-1">
          <mxGeometry x="60" y="260" width="105" height="30" as="geometry" />
        </mxCell>
        <mxCell id="IkOSHVAxNyI8cPL9JOrM-9" value="Martes" style="rounded=0;whiteSpace=wrap;html=1;" vertex="1" parent="IkOSHVAxNyI8cPL9JOrM-1">
          <mxGeometry x="165" y="260" width="100" height="30" as="geometry" />
        </mxCell>
        <mxCell id="IkOSHVAxNyI8cPL9JOrM-10" value="Miercoles" style="rounded=0;whiteSpace=wrap;html=1;" vertex="1" parent="IkOSHVAxNyI8cPL9JOrM-1">
          <mxGeometry x="265" y="260" width="95" height="30" as="geometry" />
        </mxCell>
        <mxCell id="IkOSHVAxNyI8cPL9JOrM-11" value="Jueves" style="rounded=0;whiteSpace=wrap;html=1;" vertex="1" parent="IkOSHVAxNyI8cPL9JOrM-1">
          <mxGeometry x="360" y="260" width="95" height="30" as="geometry" />
        </mxCell>
        <mxCell id="IkOSHVAxNyI8cPL9JOrM-12" value="Viernes" style="rounded=0;whiteSpace=wrap;html=1;" vertex="1" parent="IkOSHVAxNyI8cPL9JOrM-1">
          <mxGeometry x="455" y="260" width="95" height="30" as="geometry" />
        </mxCell>
        <mxCell id="IkOSHVAxNyI8cPL9JOrM-13" value="Sabado" style="rounded=0;whiteSpace=wrap;html=1;" vertex="1" parent="IkOSHVAxNyI8cPL9JOrM-1">
          <mxGeometry x="550" y="260" width="95" height="30" as="geometry" />
        </mxCell>
        <mxCell id="IkOSHVAxNyI8cPL9JOrM-14" value="Domingo" style="rounded=0;whiteSpace=wrap;html=1;" vertex="1" parent="IkOSHVAxNyI8cPL9JOrM-1">
          <mxGeometry x="645" y="260" width="115" height="30" as="geometry" />
        </mxCell>
        <mxCell id="IkOSHVAxNyI8cPL9JOrM-15" value="Dia de xxxx&lt;div&gt;- Ejercicio 1&lt;/div&gt;&lt;div&gt;- Ejercicio 1&lt;br&gt;&lt;/div&gt;&lt;div&gt;- Ejercicio 1&lt;br&gt;&lt;/div&gt;&lt;div&gt;- Ejercicio 1&lt;br&gt;&lt;/div&gt;" style="rounded=0;whiteSpace=wrap;html=1;" vertex="1" parent="IkOSHVAxNyI8cPL9JOrM-1">
          <mxGeometry x="60" y="290" width="105" height="210" as="geometry" />
        </mxCell>
        <mxCell id="IkOSHVAxNyI8cPL9JOrM-16" value="Dia de xxxx&lt;div&gt;- Ejercicio 1&lt;/div&gt;&lt;div&gt;- Ejercicio 1&lt;br&gt;&lt;/div&gt;&lt;div&gt;- Ejercicio 1&lt;br&gt;&lt;/div&gt;&lt;div&gt;- Ejercicio 1&lt;br&gt;&lt;/div&gt;" style="rounded=0;whiteSpace=wrap;html=1;" vertex="1" parent="IkOSHVAxNyI8cPL9JOrM-1">
          <mxGeometry x="265" y="290" width="95" height="210" as="geometry" />
        </mxCell>
        <mxCell id="IkOSHVAxNyI8cPL9JOrM-17" value="Dia de xxxx&lt;div&gt;- Ejercicio 1&lt;/div&gt;&lt;div&gt;- Ejercicio 1&lt;br&gt;&lt;/div&gt;&lt;div&gt;- Ejercicio 1&lt;br&gt;&lt;/div&gt;&lt;div&gt;- Ejercicio 1&lt;br&gt;&lt;/div&gt;" style="rounded=0;whiteSpace=wrap;html=1;" vertex="1" parent="IkOSHVAxNyI8cPL9JOrM-1">
          <mxGeometry x="455" y="290" width="95" height="210" as="geometry" />
        </mxCell>
        <mxCell id="IkOSHVAxNyI8cPL9JOrM-18" value="Dia de xxxx&lt;div&gt;- Ejercicio 1&lt;/div&gt;&lt;div&gt;- Ejercicio 1&lt;br&gt;&lt;/div&gt;&lt;div&gt;- Ejercicio 1&lt;br&gt;&lt;/div&gt;&lt;div&gt;- Ejercicio 1&lt;br&gt;&lt;/div&gt;" style="rounded=0;whiteSpace=wrap;html=1;" vertex="1" parent="IkOSHVAxNyI8cPL9JOrM-1">
          <mxGeometry x="550" y="290" width="95" height="210" as="geometry" />
        </mxCell>
        <mxCell id="IkOSHVAxNyI8cPL9JOrM-19" value="Siguiente semana &amp;gt;" style="rounded=0;whiteSpace=wrap;html=1;" vertex="1" parent="IkOSHVAxNyI8cPL9JOrM-1">
          <mxGeometry x="640" y="230" width="120" height="30" as="geometry" />
        </mxCell>
        <mxCell id="IkOSHVAxNyI8cPL9JOrM-20" value="" style="html=1;verticalLabelPosition=bottom;align=center;labelBackgroundColor=#ffffff;verticalAlign=top;strokeWidth=2;strokeColor=#0080F0;shadow=0;dashed=0;shape=mxgraph.ios7.icons.page_navigation;pointerEvents=1" vertex="1" parent="IkOSHVAxNyI8cPL9JOrM-1">
          <mxGeometry x="395" y="510" width="30" height="4.8" as="geometry" />
        </mxCell>
        <mxCell id="IkOSHVAxNyI8cPL9JOrM-21" value="&amp;lt; Anterior semana" style="rounded=0;whiteSpace=wrap;html=1;" vertex="1" parent="IkOSHVAxNyI8cPL9JOrM-1">
          <mxGeometry x="60" y="230" width="120" height="30" as="geometry" />
        </mxCell>
        <mxCell id="IkOSHVAxNyI8cPL9JOrM-22" value="" style="rounded=0;whiteSpace=wrap;html=1;" vertex="1" parent="IkOSHVAxNyI8cPL9JOrM-1">
          <mxGeometry x="57.5" y="150" width="700" height="70" as="geometry" />
        </mxCell>
        <mxCell id="IkOSHVAxNyI8cPL9JOrM-23" value="Dia x" style="rounded=0;whiteSpace=wrap;html=1;" vertex="1" parent="IkOSHVAxNyI8cPL9JOrM-1">
          <mxGeometry x="60" y="154" width="140" height="61" as="geometry" />
        </mxCell>
        <mxCell id="IkOSHVAxNyI8cPL9JOrM-24" value="Dia x" style="rounded=0;whiteSpace=wrap;html=1;" vertex="1" parent="IkOSHVAxNyI8cPL9JOrM-1">
          <mxGeometry x="210" y="154.5" width="140" height="61" as="geometry" />
        </mxCell>
        <mxCell id="IkOSHVAxNyI8cPL9JOrM-25" value="Dia x" style="rounded=0;whiteSpace=wrap;html=1;" vertex="1" parent="IkOSHVAxNyI8cPL9JOrM-1">
          <mxGeometry x="360" y="154.5" width="140" height="61" as="geometry" />
        </mxCell>
        <mxCell id="IkOSHVAxNyI8cPL9JOrM-26" value="Dia x" style="rounded=0;whiteSpace=wrap;html=1;" vertex="1" parent="IkOSHVAxNyI8cPL9JOrM-1">
          <mxGeometry x="510" y="154.5" width="140" height="61" as="geometry" />
        </mxCell>
        <mxCell id="IkOSHVAxNyI8cPL9JOrM-27" value="" style="html=1;verticalLabelPosition=bottom;labelBackgroundColor=#ffffff;verticalAlign=top;shadow=0;dashed=0;strokeWidth=2;shape=mxgraph.ios7.misc.info;strokeColor=#0080f0;sketch=0;" vertex="1" parent="IkOSHVAxNyI8cPL9JOrM-1">
          <mxGeometry x="740" y="155" width="12" height="12" as="geometry" />
        </mxCell>
        <mxCell id="_KWCkvIMDM9pZg4f7nt9-0" value="" style="rounded=0;whiteSpace=wrap;html=1;" vertex="1" parent="IkOSHVAxNyI8cPL9JOrM-1">
          <mxGeometry x="77.5" y="91.5" width="660" height="427" as="geometry" />
        </mxCell>
        <mxCell id="_KWCkvIMDM9pZg4f7nt9-1" value="Dia x" style="rounded=0;whiteSpace=wrap;html=1;" vertex="1" parent="IkOSHVAxNyI8cPL9JOrM-1">
          <mxGeometry x="87.5" y="101.5" width="152.5" height="48.5" as="geometry" />
        </mxCell>
        <mxCell id="_KWCkvIMDM9pZg4f7nt9-2" value="Ejercicio x" style="rounded=0;whiteSpace=wrap;html=1;" vertex="1" parent="IkOSHVAxNyI8cPL9JOrM-1">
          <mxGeometry x="87.5" y="215.5" width="152.5" height="44.5" as="geometry" />
        </mxCell>
        <mxCell id="_KWCkvIMDM9pZg4f7nt9-3" value="" style="rounded=0;whiteSpace=wrap;html=1;" vertex="1" parent="IkOSHVAxNyI8cPL9JOrM-1">
          <mxGeometry x="240" y="215" width="460" height="45" as="geometry" />
        </mxCell>
        <mxCell id="_KWCkvIMDM9pZg4f7nt9-9" value="Ejercicio x" style="rounded=0;whiteSpace=wrap;html=1;" vertex="1" parent="IkOSHVAxNyI8cPL9JOrM-1">
          <mxGeometry x="87.5" y="160.25" width="152.5" height="29.75" as="geometry" />
        </mxCell>
        <mxCell id="_KWCkvIMDM9pZg4f7nt9-10" value="Ejercicio x" style="rounded=0;whiteSpace=wrap;html=1;" vertex="1" parent="IkOSHVAxNyI8cPL9JOrM-1">
          <mxGeometry x="242.5" y="160.25" width="152.5" height="29.75" as="geometry" />
        </mxCell>
        <mxCell id="_KWCkvIMDM9pZg4f7nt9-11" value="Ejercicio x" style="rounded=0;whiteSpace=wrap;html=1;" vertex="1" parent="IkOSHVAxNyI8cPL9JOrM-1">
          <mxGeometry x="397.5" y="160.25" width="152.5" height="29.75" as="geometry" />
        </mxCell>
        <mxCell id="_KWCkvIMDM9pZg4f7nt9-12" value="Añadir ejercicio nuevo" style="rounded=0;whiteSpace=wrap;html=1;" vertex="1" parent="IkOSHVAxNyI8cPL9JOrM-1">
          <mxGeometry x="560" y="160.25" width="152.5" height="29.75" as="geometry" />
        </mxCell>
        <mxCell id="Ocl-sfIWQ70wk_5C_XCz-0" value="Guardar" style="rounded=0;whiteSpace=wrap;html=1;" vertex="1" parent="IkOSHVAxNyI8cPL9JOrM-1">
          <mxGeometry x="640" y="490" width="92.5" height="20" as="geometry" />
        </mxCell>
        <mxCell id="Ocl-sfIWQ70wk_5C_XCz-1" value="Cancelar" style="rounded=0;whiteSpace=wrap;html=1;" vertex="1" parent="IkOSHVAxNyI8cPL9JOrM-1">
          <mxGeometry x="540" y="490" width="90" height="20" as="geometry" />
        </mxCell>
        <mxCell id="Ocl-sfIWQ70wk_5C_XCz-2" value="Ejercicio x" style="rounded=0;whiteSpace=wrap;html=1;" vertex="1" parent="IkOSHVAxNyI8cPL9JOrM-1">
          <mxGeometry x="87.5" y="270.5" width="152.5" height="44.5" as="geometry" />
        </mxCell>
        <mxCell id="Ocl-sfIWQ70wk_5C_XCz-3" value="" style="rounded=0;whiteSpace=wrap;html=1;" vertex="1" parent="IkOSHVAxNyI8cPL9JOrM-1">
          <mxGeometry x="240" y="270" width="460" height="45" as="geometry" />
        </mxCell>
        <mxCell id="Ocl-sfIWQ70wk_5C_XCz-4" value="Ejercicio x" style="rounded=0;whiteSpace=wrap;html=1;" vertex="1" parent="IkOSHVAxNyI8cPL9JOrM-1">
          <mxGeometry x="87.5" y="330.5" width="152.5" height="44.5" as="geometry" />
        </mxCell>
        <mxCell id="Ocl-sfIWQ70wk_5C_XCz-5" value="" style="rounded=0;whiteSpace=wrap;html=1;" vertex="1" parent="IkOSHVAxNyI8cPL9JOrM-1">
          <mxGeometry x="240" y="330" width="460" height="45" as="geometry" />
        </mxCell>
        <mxCell id="Ocl-sfIWQ70wk_5C_XCz-6" value="Ejercicio x" style="rounded=0;whiteSpace=wrap;html=1;" vertex="1" parent="IkOSHVAxNyI8cPL9JOrM-1">
          <mxGeometry x="87.5" y="390.5" width="152.5" height="44.5" as="geometry" />
        </mxCell>
        <mxCell id="Ocl-sfIWQ70wk_5C_XCz-7" value="" style="rounded=0;whiteSpace=wrap;html=1;" vertex="1" parent="IkOSHVAxNyI8cPL9JOrM-1">
          <mxGeometry x="240" y="390" width="460" height="45" as="geometry" />
        </mxCell>
      </root>
    </mxGraphModel>
  </diagram>
  <diagram name="Vista editar ejercicio" id="xwXp0b0XsnFMZU_V-Tns">
    <mxGraphModel dx="1034" dy="557" grid="1" gridSize="10" guides="1" tooltips="1" connect="1" arrows="1" fold="1" page="1" pageScale="1" pageWidth="827" pageHeight="1169" math="0" shadow="0">
      <root>
        <mxCell id="CkuPnEQlHS4NaZoIe9P_-0" />
        <mxCell id="CkuPnEQlHS4NaZoIe9P_-1" parent="CkuPnEQlHS4NaZoIe9P_-0" />
        <mxCell id="CkuPnEQlHS4NaZoIe9P_-2" value="" style="rounded=0;whiteSpace=wrap;html=1;" vertex="1" parent="CkuPnEQlHS4NaZoIe9P_-1">
          <mxGeometry x="50" y="50" width="720" height="510" as="geometry" />
        </mxCell>
        <mxCell id="CkuPnEQlHS4NaZoIe9P_-3" value="Fecha de inicio" style="rounded=0;whiteSpace=wrap;html=1;" vertex="1" parent="CkuPnEQlHS4NaZoIe9P_-1">
          <mxGeometry x="60" y="110" width="140" height="30" as="geometry" />
        </mxCell>
        <mxCell id="CkuPnEQlHS4NaZoIe9P_-4" value="Fecha de fin" style="rounded=0;whiteSpace=wrap;html=1;" vertex="1" parent="CkuPnEQlHS4NaZoIe9P_-1">
          <mxGeometry x="210" y="110" width="140" height="30" as="geometry" />
        </mxCell>
        <mxCell id="CkuPnEQlHS4NaZoIe9P_-5" value="Activo" style="rounded=0;whiteSpace=wrap;html=1;" vertex="1" parent="CkuPnEQlHS4NaZoIe9P_-1">
          <mxGeometry x="360" y="110" width="140" height="30" as="geometry" />
        </mxCell>
        <mxCell id="CkuPnEQlHS4NaZoIe9P_-6" value="Rutinas" style="rounded=0;whiteSpace=wrap;html=1;" vertex="1" parent="CkuPnEQlHS4NaZoIe9P_-1">
          <mxGeometry x="60" y="60" width="140" height="30" as="geometry" />
        </mxCell>
        <mxCell id="CkuPnEQlHS4NaZoIe9P_-7" value="" style="rounded=0;whiteSpace=wrap;html=1;" vertex="1" parent="CkuPnEQlHS4NaZoIe9P_-1">
          <mxGeometry x="60" y="230" width="700" height="270" as="geometry" />
        </mxCell>
        <mxCell id="CkuPnEQlHS4NaZoIe9P_-8" value="Lunes" style="rounded=0;whiteSpace=wrap;html=1;" vertex="1" parent="CkuPnEQlHS4NaZoIe9P_-1">
          <mxGeometry x="60" y="260" width="105" height="30" as="geometry" />
        </mxCell>
        <mxCell id="CkuPnEQlHS4NaZoIe9P_-9" value="Martes" style="rounded=0;whiteSpace=wrap;html=1;" vertex="1" parent="CkuPnEQlHS4NaZoIe9P_-1">
          <mxGeometry x="165" y="260" width="100" height="30" as="geometry" />
        </mxCell>
        <mxCell id="CkuPnEQlHS4NaZoIe9P_-10" value="Miercoles" style="rounded=0;whiteSpace=wrap;html=1;" vertex="1" parent="CkuPnEQlHS4NaZoIe9P_-1">
          <mxGeometry x="265" y="260" width="95" height="30" as="geometry" />
        </mxCell>
        <mxCell id="CkuPnEQlHS4NaZoIe9P_-11" value="Jueves" style="rounded=0;whiteSpace=wrap;html=1;" vertex="1" parent="CkuPnEQlHS4NaZoIe9P_-1">
          <mxGeometry x="360" y="260" width="95" height="30" as="geometry" />
        </mxCell>
        <mxCell id="CkuPnEQlHS4NaZoIe9P_-12" value="Viernes" style="rounded=0;whiteSpace=wrap;html=1;" vertex="1" parent="CkuPnEQlHS4NaZoIe9P_-1">
          <mxGeometry x="455" y="260" width="95" height="30" as="geometry" />
        </mxCell>
        <mxCell id="CkuPnEQlHS4NaZoIe9P_-13" value="Sabado" style="rounded=0;whiteSpace=wrap;html=1;" vertex="1" parent="CkuPnEQlHS4NaZoIe9P_-1">
          <mxGeometry x="550" y="260" width="95" height="30" as="geometry" />
        </mxCell>
        <mxCell id="CkuPnEQlHS4NaZoIe9P_-14" value="Domingo" style="rounded=0;whiteSpace=wrap;html=1;" vertex="1" parent="CkuPnEQlHS4NaZoIe9P_-1">
          <mxGeometry x="645" y="260" width="115" height="30" as="geometry" />
        </mxCell>
        <mxCell id="CkuPnEQlHS4NaZoIe9P_-15" value="Dia de xxxx&lt;div&gt;- Ejercicio 1&lt;/div&gt;&lt;div&gt;- Ejercicio 1&lt;br&gt;&lt;/div&gt;&lt;div&gt;- Ejercicio 1&lt;br&gt;&lt;/div&gt;&lt;div&gt;- Ejercicio 1&lt;br&gt;&lt;/div&gt;" style="rounded=0;whiteSpace=wrap;html=1;" vertex="1" parent="CkuPnEQlHS4NaZoIe9P_-1">
          <mxGeometry x="60" y="290" width="105" height="210" as="geometry" />
        </mxCell>
        <mxCell id="CkuPnEQlHS4NaZoIe9P_-16" value="Dia de xxxx&lt;div&gt;- Ejercicio 1&lt;/div&gt;&lt;div&gt;- Ejercicio 1&lt;br&gt;&lt;/div&gt;&lt;div&gt;- Ejercicio 1&lt;br&gt;&lt;/div&gt;&lt;div&gt;- Ejercicio 1&lt;br&gt;&lt;/div&gt;" style="rounded=0;whiteSpace=wrap;html=1;" vertex="1" parent="CkuPnEQlHS4NaZoIe9P_-1">
          <mxGeometry x="265" y="290" width="95" height="210" as="geometry" />
        </mxCell>
        <mxCell id="CkuPnEQlHS4NaZoIe9P_-17" value="Dia de xxxx&lt;div&gt;- Ejercicio 1&lt;/div&gt;&lt;div&gt;- Ejercicio 1&lt;br&gt;&lt;/div&gt;&lt;div&gt;- Ejercicio 1&lt;br&gt;&lt;/div&gt;&lt;div&gt;- Ejercicio 1&lt;br&gt;&lt;/div&gt;" style="rounded=0;whiteSpace=wrap;html=1;" vertex="1" parent="CkuPnEQlHS4NaZoIe9P_-1">
          <mxGeometry x="455" y="290" width="95" height="210" as="geometry" />
        </mxCell>
        <mxCell id="CkuPnEQlHS4NaZoIe9P_-18" value="Dia de xxxx&lt;div&gt;- Ejercicio 1&lt;/div&gt;&lt;div&gt;- Ejercicio 1&lt;br&gt;&lt;/div&gt;&lt;div&gt;- Ejercicio 1&lt;br&gt;&lt;/div&gt;&lt;div&gt;- Ejercicio 1&lt;br&gt;&lt;/div&gt;" style="rounded=0;whiteSpace=wrap;html=1;" vertex="1" parent="CkuPnEQlHS4NaZoIe9P_-1">
          <mxGeometry x="550" y="290" width="95" height="210" as="geometry" />
        </mxCell>
        <mxCell id="CkuPnEQlHS4NaZoIe9P_-19" value="Siguiente semana &amp;gt;" style="rounded=0;whiteSpace=wrap;html=1;" vertex="1" parent="CkuPnEQlHS4NaZoIe9P_-1">
          <mxGeometry x="640" y="230" width="120" height="30" as="geometry" />
        </mxCell>
        <mxCell id="CkuPnEQlHS4NaZoIe9P_-20" value="" style="html=1;verticalLabelPosition=bottom;align=center;labelBackgroundColor=#ffffff;verticalAlign=top;strokeWidth=2;strokeColor=#0080F0;shadow=0;dashed=0;shape=mxgraph.ios7.icons.page_navigation;pointerEvents=1" vertex="1" parent="CkuPnEQlHS4NaZoIe9P_-1">
          <mxGeometry x="395" y="510" width="30" height="4.8" as="geometry" />
        </mxCell>
        <mxCell id="CkuPnEQlHS4NaZoIe9P_-21" value="&amp;lt; Anterior semana" style="rounded=0;whiteSpace=wrap;html=1;" vertex="1" parent="CkuPnEQlHS4NaZoIe9P_-1">
          <mxGeometry x="60" y="230" width="120" height="30" as="geometry" />
        </mxCell>
        <mxCell id="CkuPnEQlHS4NaZoIe9P_-22" value="" style="rounded=0;whiteSpace=wrap;html=1;" vertex="1" parent="CkuPnEQlHS4NaZoIe9P_-1">
          <mxGeometry x="57.5" y="150" width="700" height="70" as="geometry" />
        </mxCell>
        <mxCell id="CkuPnEQlHS4NaZoIe9P_-23" value="Dia x" style="rounded=0;whiteSpace=wrap;html=1;" vertex="1" parent="CkuPnEQlHS4NaZoIe9P_-1">
          <mxGeometry x="60" y="154" width="140" height="61" as="geometry" />
        </mxCell>
        <mxCell id="CkuPnEQlHS4NaZoIe9P_-24" value="Dia x" style="rounded=0;whiteSpace=wrap;html=1;" vertex="1" parent="CkuPnEQlHS4NaZoIe9P_-1">
          <mxGeometry x="210" y="154.5" width="140" height="61" as="geometry" />
        </mxCell>
        <mxCell id="CkuPnEQlHS4NaZoIe9P_-25" value="Dia x" style="rounded=0;whiteSpace=wrap;html=1;" vertex="1" parent="CkuPnEQlHS4NaZoIe9P_-1">
          <mxGeometry x="360" y="154.5" width="140" height="61" as="geometry" />
        </mxCell>
        <mxCell id="CkuPnEQlHS4NaZoIe9P_-26" value="Dia x" style="rounded=0;whiteSpace=wrap;html=1;" vertex="1" parent="CkuPnEQlHS4NaZoIe9P_-1">
          <mxGeometry x="510" y="154.5" width="140" height="61" as="geometry" />
        </mxCell>
        <mxCell id="CkuPnEQlHS4NaZoIe9P_-27" value="" style="html=1;verticalLabelPosition=bottom;labelBackgroundColor=#ffffff;verticalAlign=top;shadow=0;dashed=0;strokeWidth=2;shape=mxgraph.ios7.misc.info;strokeColor=#0080f0;sketch=0;" vertex="1" parent="CkuPnEQlHS4NaZoIe9P_-1">
          <mxGeometry x="740" y="155" width="12" height="12" as="geometry" />
        </mxCell>
        <mxCell id="CkuPnEQlHS4NaZoIe9P_-28" value="" style="rounded=0;whiteSpace=wrap;html=1;" vertex="1" parent="CkuPnEQlHS4NaZoIe9P_-1">
          <mxGeometry x="77.5" y="91.5" width="660" height="427" as="geometry" />
        </mxCell>
        <mxCell id="CkuPnEQlHS4NaZoIe9P_-29" value="Dia x" style="rounded=0;whiteSpace=wrap;html=1;" vertex="1" parent="CkuPnEQlHS4NaZoIe9P_-1">
          <mxGeometry x="87.5" y="101.5" width="152.5" height="48.5" as="geometry" />
        </mxCell>
        <mxCell id="CkuPnEQlHS4NaZoIe9P_-30" value="Ejercicio x" style="rounded=0;whiteSpace=wrap;html=1;" vertex="1" parent="CkuPnEQlHS4NaZoIe9P_-1">
          <mxGeometry x="87.5" y="215.5" width="152.5" height="44.5" as="geometry" />
        </mxCell>
        <mxCell id="CkuPnEQlHS4NaZoIe9P_-31" value="" style="rounded=0;whiteSpace=wrap;html=1;" vertex="1" parent="CkuPnEQlHS4NaZoIe9P_-1">
          <mxGeometry x="240" y="215" width="460" height="45" as="geometry" />
        </mxCell>
        <mxCell id="CkuPnEQlHS4NaZoIe9P_-32" value="Ejercicio x" style="rounded=0;whiteSpace=wrap;html=1;" vertex="1" parent="CkuPnEQlHS4NaZoIe9P_-1">
          <mxGeometry x="87.5" y="160.25" width="152.5" height="29.75" as="geometry" />
        </mxCell>
        <mxCell id="CkuPnEQlHS4NaZoIe9P_-33" value="Ejercicio x" style="rounded=0;whiteSpace=wrap;html=1;" vertex="1" parent="CkuPnEQlHS4NaZoIe9P_-1">
          <mxGeometry x="242.5" y="160.25" width="152.5" height="29.75" as="geometry" />
        </mxCell>
        <mxCell id="CkuPnEQlHS4NaZoIe9P_-34" value="Ejercicio x" style="rounded=0;whiteSpace=wrap;html=1;" vertex="1" parent="CkuPnEQlHS4NaZoIe9P_-1">
          <mxGeometry x="397.5" y="160.25" width="152.5" height="29.75" as="geometry" />
        </mxCell>
        <mxCell id="CkuPnEQlHS4NaZoIe9P_-35" value="Añadir ejercicio nuevo" style="rounded=0;whiteSpace=wrap;html=1;" vertex="1" parent="CkuPnEQlHS4NaZoIe9P_-1">
          <mxGeometry x="560" y="160.25" width="152.5" height="29.75" as="geometry" />
        </mxCell>
        <mxCell id="CkuPnEQlHS4NaZoIe9P_-36" value="Guardar" style="rounded=0;whiteSpace=wrap;html=1;" vertex="1" parent="CkuPnEQlHS4NaZoIe9P_-1">
          <mxGeometry x="640" y="490" width="92.5" height="20" as="geometry" />
        </mxCell>
        <mxCell id="CkuPnEQlHS4NaZoIe9P_-37" value="Cancelar" style="rounded=0;whiteSpace=wrap;html=1;" vertex="1" parent="CkuPnEQlHS4NaZoIe9P_-1">
          <mxGeometry x="540" y="490" width="90" height="20" as="geometry" />
        </mxCell>
        <mxCell id="CkuPnEQlHS4NaZoIe9P_-38" value="Ejercicio x" style="rounded=0;whiteSpace=wrap;html=1;" vertex="1" parent="CkuPnEQlHS4NaZoIe9P_-1">
          <mxGeometry x="87.5" y="270.5" width="152.5" height="44.5" as="geometry" />
        </mxCell>
        <mxCell id="CkuPnEQlHS4NaZoIe9P_-39" value="" style="rounded=0;whiteSpace=wrap;html=1;" vertex="1" parent="CkuPnEQlHS4NaZoIe9P_-1">
          <mxGeometry x="240" y="270" width="460" height="45" as="geometry" />
        </mxCell>
        <mxCell id="CkuPnEQlHS4NaZoIe9P_-40" value="Ejercicio x" style="rounded=0;whiteSpace=wrap;html=1;" vertex="1" parent="CkuPnEQlHS4NaZoIe9P_-1">
          <mxGeometry x="87.5" y="330.5" width="152.5" height="44.5" as="geometry" />
        </mxCell>
        <mxCell id="CkuPnEQlHS4NaZoIe9P_-41" value="" style="rounded=0;whiteSpace=wrap;html=1;" vertex="1" parent="CkuPnEQlHS4NaZoIe9P_-1">
          <mxGeometry x="240" y="330" width="460" height="45" as="geometry" />
        </mxCell>
        <mxCell id="CkuPnEQlHS4NaZoIe9P_-42" value="Ejercicio x" style="rounded=0;whiteSpace=wrap;html=1;" vertex="1" parent="CkuPnEQlHS4NaZoIe9P_-1">
          <mxGeometry x="87.5" y="390.5" width="152.5" height="44.5" as="geometry" />
        </mxCell>
        <mxCell id="CkuPnEQlHS4NaZoIe9P_-43" value="" style="rounded=0;whiteSpace=wrap;html=1;" vertex="1" parent="CkuPnEQlHS4NaZoIe9P_-1">
          <mxGeometry x="240" y="390" width="460" height="45" as="geometry" />
        </mxCell>
        <mxCell id="dBgZI9Vtn2EbiO4GqYfi-0" value="" style="rounded=0;whiteSpace=wrap;html=1;" vertex="1" parent="CkuPnEQlHS4NaZoIe9P_-1">
          <mxGeometry x="245" y="224.13" width="105" height="27.25" as="geometry" />
        </mxCell>
        <mxCell id="dBgZI9Vtn2EbiO4GqYfi-2" value="" style="rounded=0;whiteSpace=wrap;html=1;" vertex="1" parent="CkuPnEQlHS4NaZoIe9P_-1">
          <mxGeometry x="355" y="224.13" width="105" height="27.25" as="geometry" />
        </mxCell>
        <mxCell id="dBgZI9Vtn2EbiO4GqYfi-3" value="" style="rounded=0;whiteSpace=wrap;html=1;" vertex="1" parent="CkuPnEQlHS4NaZoIe9P_-1">
          <mxGeometry x="470" y="223.88" width="105" height="27.25" as="geometry" />
        </mxCell>
        <mxCell id="dBgZI9Vtn2EbiO4GqYfi-4" value="" style="rounded=0;whiteSpace=wrap;html=1;" vertex="1" parent="CkuPnEQlHS4NaZoIe9P_-1">
          <mxGeometry x="583.75" y="223.88" width="105" height="27.25" as="geometry" />
        </mxCell>
      </root>
    </mxGraphModel>
  </diagram>
  <diagram id="T1NR_JWn8Fn5VUuUlR8e" name="Vista rutina hoy">
    <mxGraphModel dx="1034" dy="557" grid="1" gridSize="10" guides="1" tooltips="1" connect="1" arrows="1" fold="1" page="1" pageScale="1" pageWidth="827" pageHeight="1169" math="0" shadow="0">
      <root>
        <mxCell id="0" />
        <mxCell id="1" parent="0" />
        <mxCell id="hjIzJofeGF5L_KS41L-M-1" value="" style="rounded=0;whiteSpace=wrap;html=1;" vertex="1" parent="1">
          <mxGeometry x="40" y="40" width="740" height="440" as="geometry" />
        </mxCell>
        <mxCell id="hjIzJofeGF5L_KS41L-M-2" value="Rutina x" style="rounded=0;whiteSpace=wrap;html=1;" vertex="1" parent="1">
          <mxGeometry x="60" y="50" width="120" height="60" as="geometry" />
        </mxCell>
        <mxCell id="hjIzJofeGF5L_KS41L-M-3" value="Dia x" style="rounded=0;whiteSpace=wrap;html=1;" vertex="1" parent="1">
          <mxGeometry x="60" y="120" width="690" height="30" as="geometry" />
        </mxCell>
        <mxCell id="hjIzJofeGF5L_KS41L-M-4" value="Ejercicio x" style="rounded=0;whiteSpace=wrap;html=1;" vertex="1" parent="1">
          <mxGeometry x="65" y="160" width="685" height="80" as="geometry" />
        </mxCell>
        <mxCell id="hjIzJofeGF5L_KS41L-M-6" value="" style="html=1;verticalLabelPosition=bottom;labelBackgroundColor=#ffffff;verticalAlign=top;shadow=0;dashed=0;strokeWidth=2;shape=mxgraph.ios7.misc.select;fillColor=#0080f0;strokeColor=#ffffff;sketch=0;" vertex="1" parent="1">
          <mxGeometry x="720" y="170" width="12" height="12" as="geometry" />
        </mxCell>
        <mxCell id="hjIzJofeGF5L_KS41L-M-9" value="Ejercicio x" style="rounded=0;whiteSpace=wrap;html=1;" vertex="1" parent="1">
          <mxGeometry x="65" y="250" width="685" height="80" as="geometry" />
        </mxCell>
        <mxCell id="hjIzJofeGF5L_KS41L-M-10" value="" style="html=1;verticalLabelPosition=bottom;labelBackgroundColor=#ffffff;verticalAlign=top;shadow=0;dashed=0;strokeWidth=2;shape=mxgraph.ios7.misc.select;fillColor=#0080f0;strokeColor=#ffffff;sketch=0;" vertex="1" parent="1">
          <mxGeometry x="720" y="260" width="12" height="12" as="geometry" />
        </mxCell>
        <mxCell id="hjIzJofeGF5L_KS41L-M-11" value="Ejercicio x" style="rounded=0;whiteSpace=wrap;html=1;" vertex="1" parent="1">
          <mxGeometry x="65" y="340" width="685" height="80" as="geometry" />
        </mxCell>
        <mxCell id="hjIzJofeGF5L_KS41L-M-12" value="" style="html=1;verticalLabelPosition=bottom;labelBackgroundColor=#ffffff;verticalAlign=top;shadow=0;dashed=0;strokeWidth=2;shape=mxgraph.ios7.misc.select;fillColor=#0080f0;strokeColor=#ffffff;sketch=0;" vertex="1" parent="1">
          <mxGeometry x="720" y="350" width="12" height="12" as="geometry" />
        </mxCell>
      </root>
    </mxGraphModel>
  </diagram>
</mxfile>
